<?xml version="1.0" encoding="utf-8"?>
<!-- Generator: Adobe Illustrator 24.3.0, SVG Export Plug-In . SVG Version: 6.00 Build 0)  -->
<svg version="1.1" id="Layer_1" xmlns="http://www.w3.org/2000/svg" xmlns:xlink="http://www.w3.org/1999/xlink" x="0px" y="0px"
	 width="400px" height="300px" viewBox="0 0 400 300" style="enable-background:new 0 0 400 300;" xml:space="preserve">
<g>
	<path d="M200,61.3c-31.9,0-57.7,25.9-57.7,57.7c0,17,7.4,32.3,19.1,42.9l23.6-71.6c2.2-4.4,4.7-5.4,7.9-5.4h13.2c0.7,0,1.3-0.1,2,0
		c-3.5,1.3-7.1,4.5-9,10.6c-0.3,1.1-1.3,3.8-1.6,4.6l-4.2,14.3L176.9,172c7.1,3.1,14.9,4.8,23.1,4.8c31.9,0,57.8-25.9,57.8-57.8
		C257.7,87.2,231.9,61.3,200,61.3z M222.7,147.2l-2.6,0.1c-0.4,0-6.1,0.5-7.6-4.2l-1.3-4.3c-0.9-3.1-2.4-8.1-3.3-11.1l-0.7-2.4
		c-0.9-3.1-2.5-9.3-3.4-12.5l-2-7.7c0.5-2.1,0.8-3.3,1.4-5.5c2.3-7.5,7.3-9.2,9.4-9.1c0.6,0.3,0.3,0,0.7,1.3c0,0,5.2,20.3,8.9,34.2
		l4,15c1.5,5.1,4.7,6.1,4.7,6.1c0,0,0,0,0,0H222.7z M236.5,141.6c0,0-1,2.8-2.7,2.3c-3.3-0.9-3.9-5-5-8.2c-0.4-1.3-0.2-0.4-1.6-5.8
		l10.1-21.3c0,0-0.1,4.7,4.4,5.2c2.9,0.3,6.8-3.2,9.6-3.8L236.5,141.6z"/>
	<g>
		<path d="M20.9,238.2l-1.7-5.2H9.4l-1.9,5.2H0l12.3-29.5h5.4l11,29.5H20.9z M11.4,227.5h5.9l-2.8-8.5h0L11.4,227.5z"/>
		<path d="M46.2,238.7c-8.4,0-12-5.1-12-14.4v-15.6h6.8V225c0,5.3,2,7.8,5.2,7.8c3.2,0,5.2-2.5,5.2-7.8v-16.3h6.8v15.6
			C58.4,233.5,54.8,238.7,46.2,238.7z"/>
		<path d="M77,213.9c-1.6,0-3.2,0.8-3.2,2.5c0,2.1,2.7,2.7,4.6,3.3c4.2,1.4,9.3,3.4,9.3,9.8c0,6.3-6.1,9.1-11.5,9.1
			c-4.6,0-8.3-1.9-11.5-5.1l4.4-4.3c2.3,2.1,4,3.8,7.2,3.8c2.1,0,4.1-1,4.1-3.2c0-2.3-2.7-3.2-5.4-4.2c-3.9-1.5-8-3.3-8-9
			c0-5.6,5-8.3,9.9-8.3c3.9,0,6.9,1.3,10,3.6l-3.8,4.8C81.4,215.2,79.3,213.9,77,213.9z"/>
		<path d="M105.9,214.3v23.8h-6.8v-23.8h-6.8v-5.6h20.5v5.6H105.9z"/>
		<path d="M118.4,238.2v-29.5h6.8v29.5H118.4z"/>
		<path d="M153,238.2L140.6,221v17.1h-6.8v-29.5h6l12.6,17.2v-17.2h6.8v29.5H153z"/>
		<path d="M201.5,216.5c-1.8-1.5-3.9-2.5-6.2-2.5c-4.9,0-8.4,4.2-8.4,9.4c0,5.4,3,9.4,8.4,9.4c2.2,0,4.5-1,6.2-2.6l3.9,4.9
			c-3,2.4-6.6,3.6-10.4,3.6c-8.9,0-15.3-6.4-15.3-15.3c0-8.6,7-15.3,15.6-15.3c3.6,0,6.4,1.1,9.5,3.1L201.5,216.5z"/>
		<path d="M229.8,238.2v-12.3h-11.3v12.3h-6.8v-29.5h6.8v11.5h11.3v-11.5h6.8v29.5H229.8z"/>
		<path d="M263.7,238.2L262,233h-9.7l-1.9,5.2h-7.5l12.3-29.5h5.4l11,29.5H263.7z M254.2,227.5h5.9l-2.8-8.5h0L254.2,227.5z"/>
		<path d="M297.5,238.2h-4.9l-8-20.4v20.4h-6.8v-29.5h9.9l7.5,19.6l7.8-19.6h9.6v29.5h-6.8v-20.2L297.5,238.2z"/>
		<path d="M321.1,208.7h8c2.9,0,5.9,0.5,8,1.9c2.4,1.6,3.6,3.9,3.6,6.6c0,2.3-1.3,4.5-3.4,5.5c2.7,1,4.6,3.6,4.6,6.6
			c0,3.5-2.2,6.3-5.5,7.7c-2.2,0.9-5.1,1.2-7.8,1.2h-7.7V208.7z M327.9,220.4h1.2c3.1,0,4.8-1,4.8-3c0-1.2-0.4-2-1.1-2.4
			c-1-0.7-2.5-0.7-4.1-0.7h-0.8V220.4z M330.7,225.8h-2.8v6.7h1.1c1.6,0,3.2,0,4.4-0.6c0.9-0.5,1.4-1.2,1.4-2.6
			C334.8,227.2,333.4,225.8,330.7,225.8z"/>
		<path d="M349.6,238.2v-29.5H369v5.6h-12.6v5.9H369v5.6h-12.6v6.7H369v5.6H349.6z"/>
		<path d="M376.6,208.7h9.6c4.8,0,11,2.5,11,9c0,4.4-2.9,7-6.1,8.2c2.6,3.6,6.9,9.6,8.9,12.3h-8.5l-7.8-11.5h-0.3v11.5h-6.8V208.7z
			 M383.4,221h1.8c2.7,0,4.8-1,4.8-3.2c0-2.1-1.6-3.5-4-3.5h-2.6V221z"/>
	</g>
</g>
</svg>
