<svg xmlns="http://www.w3.org/2000/svg" width="450.1" height="157.6" viewBox="0 0 450.1 157.6"><path d="M449.6 0c1 32-12.6 56.9-35.9 77.5 1.3 1.4 2.4 2.8 3.7 4 7.5 7 13.6 15.1 18.3 24 11.5 21.6 13.5 36.6 14.3 52-8.5 0-33.8.3-35.2.2-.5-7.9-3.2-15.1-6.3-22.1-3.8-8.5-7.8-16.9-13.9-24-3.3-3.8-7.7-5.9-12.1-8.1-8-3.8-16.6-5.3-25.2-6.7-4.9-.8-9.7-2.1-13.5-5.4-6.7-5.7-6.6-11-3.7-18.3 2.9-7.1 9.2-9.2 15.9-10.7 5.7-1.3 11.4-2.6 17.1-4 5.1-1.2 9.1-4.2 13.1-7.5 11.6-9.5 19.7-21.3 24.1-35.5 1.5-5 2.4-10.1 3.5-15.3 11.6-.1 23.5-.1 35.8-.1zm-27 10.7c-1.1 3.8-1.9 7.1-3.1 10.3-4.2 10.8-9.5 21-17.1 29.8-3.5 4-11.4 11.3-27.8 17.2-6.5 2.1-13.1 3.7-19.6 5.8-5.1 1.6-7.1 5.7-5.5 10.2 1 2.9 4.9 5.1 8.9 4.3 7.5-1.5 14.9-3.2 22.2-5.3 4.5-1.3 9.1-2.9 13.2-5.1 4.9-2.6 9.6-5.6 14-9.1 4.7-3.8 9.4-7.8 13.1-12.5 7-8.9 11.6-19.2 15-29.9 1.6-5 2.5-10.2 3.8-15.6-6.2-.1-11.8-.1-17.1-.1zm.7 138c4.6 0 12.5 0 14.9-.2-.1-3-.9-7.4-1.4-10.4-1.3-7.7-3-15.4-6.8-22.3-3.1-5.6-6.2-11.3-10.1-16.4-4-5.2-9.1-9.5-13.6-14.3-1-1-1.9-.8-3-.2-2.1 1.2-4.3 2.4-6.5 3.5-2.7 1.5-5.4 3-8.3 4.6 20 13.8 30.7 32.9 34.8 55.7zM52.5 104.2H39.2c-.4-16.5-12.8-26.8-25.5-27.5-.1 4.2-.3 27.5-.3 27.5s-9.6.1-13.4.1c0-2.4.1-3.9 0-6 .1-8.5 0-17.1 0-25.7 0-11.4.1-35 .1-35l13-.1s0 26.5.1 27.2c20.1-3.3 27.4-27.2 27.4-27.2l13.2-.2s-6.6 22.4-20 32.2c10 9 17.8 19.8 18.7 34.7zM75.7 104.7c-4.4 0-9.2-.1-13.7-.1V36.5c4.4 0 14.1-.1 14.1-.1S76 51.7 76 57.1c0 .1 1.5-2.1 2-2.5 5.2-4.1 10.9-3.9 17-2.7 9.1 1.9 13.5 8.1 14.3 16.7.7 7.4.5 15 .6 22.5.1 4.1-.1 14-.1 14L98 105s.1-10.1 0-14.3c-.2-5.8-.3-11.6-1-17.4-1.1-9.2-9.9-11.2-16.3-7.3-3.4 2.2-4.9 7-4.9 9.8 0 10.3-.1 28.6-.1 28.9zM243.1 107c-9.7-.6-27.2-5.4-28.2-23.9-.9-8.8 1.5-16.3 8-22.4 6.5-6.1 14.4-7.8 22.8-7.3 13.4.5 20.7 11 23.4 19 6.8 25.7-12.7 34.5-26 34.6zM229 81.2c-.4 6.7 6.7 12.5 15.1 12.4 8.4-.1 12.9-7.1 12.8-12.6-.1-7.6-6.8-14.4-14-14.3-7.3.1-14.6 7.8-13.9 14.5zM117.8 81.9c-.4-16.4 12.4-26.8 23.2-27.7 18.8-1.6 29.6 14.3 29.8 26.9.6 14.6-12.1 26.7-26.6 26.6-15.1 0-26.6-13.9-26.4-25.8zm27.8 13.2c14.3-.1 15.5-20.8 6.2-26-4.5-2.8-9.6-2.9-13.6-.2-5.5 3.7-8.1 9.8-5.2 17.8 2 5.4 5.9 8.3 12.6 8.4zM276.3 92.7c4.4 0 8.4 0 12.5.1.4 0 .9.7 1.2 1.2 2 3.8 8.1 4.2 10.5.7 1.4-2 3.4-6.1-2.2-8.7-2.9-1.5-16.2-4.9-20.2-14.1-2.5-8.8 1-15.5 9.9-18.7 11.1-4.5 21.4 2 23.6 12.8-.2.5-3 .3-10 .2-1.8-3.2-4.7-4-7-3.3-2.1.6-3.4 2.1-3.5 4.4-.1 2.4 1 3.5 3.3 4.7 4.6 2.1 8.9 4.4 12.2 6.8 10.4 6.7 7.6 17 4.9 20.9-4.2 6-12.4 8.3-19.5 6.8-5-1.1-9-3.6-12.3-7.2-1.5-1.8-3-4-3.4-6.6zM213.5 52.5v14.4c-7.1-2.7-14.1 1.2-16.6 4.3-3.6 4.6-5.1 9.9-5 15.8.1 5.5 0 11 0 16.8-4.4 0-8.3-.1-12.1 0-1.7 0-2-.7-2-2.2 0-5.1 0-10.2-.1-15.3-.1-6.7-.3-13.5-.4-20.2-.1-3.3 0-6.6-.1-9.9 0-1.9.8-2.7 2.7-2.6 2.9.1 5.7 0 8.6 0 2.5 0 3 .6 3 3.1V61c3.3-1.9 7.4-7.8 22-8.5z"/></svg>