<?xml version="1.0" encoding="utf-8"?>
<!-- Generator: Adobe Illustrator 24.3.0, SVG Export Plug-In . SVG Version: 6.00 Build 0)  -->
<svg version="1.1" id="Layer_1" xmlns="http://www.w3.org/2000/svg" xmlns:xlink="http://www.w3.org/1999/xlink" x="0px" y="0px"
	 width="400px" height="300px" viewBox="0 0 400 300" style="enable-background:new 0 0 400 300;" xml:space="preserve">
<g id="XMLID_1_">
	<path id="path5056" d="M400,145.9v-7h-8.7V128l-0.3,0.1l-8.2,2.5l-0.2,0v8.3h-13v-4.6c0-2.1,0.5-3.8,1.4-4.9c0.9-1.1,2.3-1.6,4-1.6
		c1.2,0,2.5,0.3,3.8,0.9l0.3,0.1v-7.4l-0.2-0.1c-1.2-0.4-2.8-0.6-4.9-0.6c-2.5,0-4.9,0.6-6.9,1.7c-2,1.1-3.6,2.7-4.7,4.7
		c-1.1,2-1.7,4.3-1.7,6.8v5.1h-6.1v7h6.1v29.6h8.7v-29.6h13v18.8c0,7.8,3.7,11.7,10.9,11.7c1.2,0,2.4-0.1,3.7-0.4
		c1.3-0.3,2.2-0.6,2.7-0.9l0.1-0.1V168l-0.4,0.2c-0.5,0.3-1.1,0.6-1.8,0.8c-0.7,0.2-1.3,0.3-1.7,0.3c-1.7,0-2.9-0.5-3.7-1.4
		c-0.8-0.9-1.2-2.5-1.2-4.7v-17.3H400L400,145.9z M335.3,169.3c-3.2,0-5.7-1.1-7.4-3.1c-1.8-2.1-2.7-5-2.7-8.8c0-3.9,0.9-6.9,2.7-9
		c1.8-2.1,4.2-3.2,7.4-3.2c3,0,5.4,1,7.2,3c1.7,2,2.6,5,2.6,9c0,4-0.8,7-2.5,9.1C341,168.3,338.5,169.3,335.3,169.3 M335.7,138
		c-6,0-10.8,1.8-14.3,5.3c-3.4,3.5-5.2,8.3-5.2,14.4c0,5.7,1.7,10.4,5,13.7c3.3,3.4,7.9,5.1,13.5,5.1c5.9,0,10.6-1.8,14-5.3
		c3.4-3.5,5.2-8.3,5.2-14.2c0-5.8-1.6-10.5-4.8-13.8C345.9,139.7,341.4,138,335.7,138 M302.2,138c-4.1,0-7.5,1.1-10.1,3.1
		c-2.6,2.1-3.9,4.8-3.9,8.1c0,1.7,0.3,3.3,0.8,4.5c0.6,1.3,1.4,2.4,2.6,3.4c1.2,1,2.9,2,5.3,3c2,0.8,3.5,1.5,4.4,2.1
		c0.9,0.5,1.6,1.1,1.9,1.6c0.4,0.5,0.5,1.2,0.5,2.1c0,2.5-1.8,3.7-5.6,3.7c-1.4,0-3-0.3-4.8-0.9c-1.8-0.6-3.4-1.4-4.9-2.5l-0.4-0.3
		v8.4l0.1,0.1c1.2,0.6,2.8,1.1,4.6,1.4c1.8,0.4,3.5,0.6,4.9,0.6c4.5,0,8.1-1.1,10.7-3.1c2.6-2.1,4-4.9,4-8.3c0-2.5-0.7-4.6-2.1-6.3
		c-1.4-1.7-3.9-3.3-7.3-4.6c-2.7-1.1-4.5-2-5.2-2.7c-0.7-0.7-1-1.6-1-2.8c0-1.1,0.4-1.9,1.3-2.6c0.9-0.7,2.1-1,3.7-1
		c1.5,0,2.9,0.2,4.4,0.7c1.5,0.5,2.8,1.1,3.9,1.8l0.4,0.2v-8l-0.1-0.1c-1-0.4-2.3-0.8-3.9-1.1C304.9,138.2,303.5,138,302.2,138
		 M265.4,169.3c-3.2,0-5.7-1.1-7.4-3.1c-1.8-2.1-2.7-5-2.7-8.8c0-3.9,0.9-6.9,2.7-9c1.8-2.1,4.2-3.2,7.4-3.2c3,0,5.4,1,7.2,3
		c1.7,2,2.6,5,2.6,9c0,4-0.8,7-2.5,9.1C271,168.3,268.6,169.3,265.4,169.3 M265.8,138c-6,0-10.9,1.8-14.3,5.3
		c-3.4,3.5-5.2,8.3-5.2,14.4c0,5.7,1.7,10.4,5,13.7c3.3,3.4,7.9,5.1,13.5,5.1c5.9,0,10.6-1.8,14-5.3c3.4-3.5,5.2-8.3,5.2-14.2
		c0-5.8-1.6-10.5-4.8-13.8C276,139.7,271.5,138,265.8,138 M233.1,145.2v-6.4h-8.6v36.7h8.6v-18.8c0-3.2,0.7-5.8,2.1-7.8
		c1.4-2,3.3-2.9,5.6-2.9c0.8,0,1.6,0.1,2.6,0.4c0.9,0.3,1.6,0.5,2,0.8l0.4,0.3v-8.7l-0.1-0.1c-0.8-0.3-1.9-0.5-3.4-0.5
		c-2.2,0-4.1,0.7-5.8,2.1C235,141.5,234,143.2,233.1,145.2L233.1,145.2z M209,138c-4,0-7.5,0.8-10.5,2.5c-3,1.7-5.3,4.1-6.9,7.1
		c-1.6,3-2.4,6.6-2.4,10.5c0,3.5,0.8,6.6,2.3,9.4c1.5,2.8,3.7,5,6.5,6.5c2.7,1.5,5.9,2.3,9.4,2.3c4.1,0,7.6-0.8,10.4-2.4l0.1-0.1
		v-7.9l-0.4,0.3c-1.3,0.9-2.7,1.7-4.2,2.2c-1.5,0.5-2.9,0.8-4.1,0.8c-3.4,0-6.1-1.1-8.1-3.1c-2-2.1-3-5-3-8.7c0-3.7,1-6.7,3.1-9
		c2.1-2.2,4.8-3.3,8.1-3.3c2.8,0,5.6,1,8.2,2.9l0.4,0.3v-8.3l-0.1-0.1c-1-0.6-2.3-1-4-1.4C212.2,138.2,210.6,138,209,138
		 M183.3,138.9h-8.6v36.7h8.6V138.9z M179.1,123.3c-1.4,0-2.7,0.5-3.7,1.4c-1,1-1.5,2.2-1.5,3.6c0,1.4,0.5,2.6,1.5,3.5
		c1,0.9,2.2,1.4,3.7,1.4c1.4,0,2.7-0.5,3.7-1.4c1-0.9,1.5-2.1,1.5-3.5c0-1.4-0.5-2.6-1.5-3.6C181.8,123.8,180.6,123.3,179.1,123.3
		 M157.6,136.2v39.4h8.8v-51.2h-12.2l-15.5,38l-15-38H111v51.2h8.3v-39.4h0.3l15.9,39.4h6.2l15.6-39.4H157.6L157.6,136.2z"/>
	<path id="path5058" d="M40.6,147.9H0v-40.6h40.6V147.9z"/>
	<path id="path5060" d="M85.4,147.9H44.8v-40.6h40.6V147.9z"/>
	<path id="path5062" d="M40.6,192.7H0v-40.6h40.6V192.7z"/>
	<path id="path5064" d="M85.4,192.7H44.8v-40.6h40.6V192.7z"/>
</g>
</svg>
